<svg width="546" height="408" viewBox="0 0 546 408" fill="none" xmlns="http://www.w3.org/2000/svg">
<path d="M235.948 159.757L236.44 145.367L227.638 142.476C227.26 137.599 226.471 132.763 225.28 128.02L232.749 122.545L227.682 109.031L218.444 109.775C216.253 105.421 213.696 101.263 210.8 97.3458L215.583 89.3404L205.755 78.8163L197.499 83.0544C193.787 79.8721 189.82 77.0005 185.64 74.4686L186.972 65.2696L173.868 59.3121L167.862 66.3647C163.229 64.8783 158.481 63.7794 153.666 63.0793L151.482 54.0664L137.09 53.5736L134.25 62.4113C129.393 62.7943 124.575 63.5819 119.847 64.7658L114.3 57.3189L100.824 62.3675L101.567 71.6322C97.2276 73.8623 93.0818 76.4521 89.1727 79.3748L81.1356 74.4686L70.5978 84.3247L74.8238 92.6477C71.6498 96.352 68.8 100.324 66.3062 104.519L57.1443 103.139L51.1602 116.281L58.2363 122.293C56.7437 126.937 55.6477 131.699 54.9603 136.529L45.864 138.818L45.3726 153.208L54.2178 156.099C54.5836 160.973 55.3692 165.806 56.5656 170.544L49.0963 176.02L54.1741 189.544L63.4124 188.8C65.5972 193.157 68.1548 197.316 71.0564 201.229L66.2625 209.235L76.0905 219.759L84.346 215.521C88.0486 218.702 92.0079 221.571 96.1833 224.096L94.8074 233.284L107.911 239.252L113.95 232.2C118.583 233.699 123.331 234.816 128.146 235.54L130.33 244.553L144.723 245.045L147.562 236.208C152.423 235.82 157.244 235.033 161.976 233.853L167.436 241.3L180.912 236.252L180.213 226.987C184.544 224.743 188.689 222.153 192.607 219.244L200.546 224.041L211.084 214.185L206.858 205.862C210.033 202.158 212.882 198.186 215.375 193.991L224.537 195.37L230.521 182.229L223.445 176.206C224.963 171.566 226.077 166.802 226.776 161.969L235.948 159.757ZM138.99 206.377C127.729 205.995 116.834 202.273 107.683 195.681C98.5319 189.089 91.536 179.923 87.5801 169.343C83.6243 158.762 82.8862 147.243 85.4592 136.243C88.0323 125.242 93.8009 115.253 102.035 107.541C110.27 99.8283 120.6 94.7382 131.72 92.9145C142.839 91.0907 154.248 92.6152 164.503 97.2952C174.759 101.975 183.4 109.6 189.333 119.206C195.267 128.811 198.226 139.966 197.838 151.259C197.319 166.393 190.829 180.701 179.793 191.037C168.758 201.373 154.081 206.891 138.99 206.377Z" fill="#EBEBEB"/>
<path d="M481.572 112.163L485.186 108.779L483.756 105.921C484.847 104.64 485.83 103.27 486.693 101.825L489.86 102.296L491.902 97.7619L489.478 95.6921C490 94.0891 490.384 92.4439 490.625 90.7749L493.737 89.9974L493.89 85.0255L490.854 84.0399C490.721 82.356 490.45 80.6859 490.046 79.0462L492.612 77.1297L490.865 72.4754L487.687 72.7273C486.921 71.2262 486.033 69.7904 485.034 68.4344L486.683 65.6966L483.286 62.0608L480.447 63.5173C479.168 62.4254 477.802 61.4402 476.363 60.5714L476.822 57.3955L472.312 55.3257L470.237 57.7679C468.636 57.2678 466.996 56.9015 465.334 56.6727L464.559 53.5626L459.601 53.3764L458.607 56.4428C456.935 56.571 455.276 56.8421 453.65 57.2531L451.749 54.6796L447.098 56.4209L447.36 59.6186C445.859 60.3796 444.426 61.27 443.079 62.2798L440.327 60.6261L436.702 64.0101L438.11 66.8026C437.011 68.0797 436.025 69.4501 435.162 70.8984L432.006 70.4275L429.953 74.9613L432.388 77.0421C431.883 78.6427 431.518 80.2843 431.296 81.9482L428.173 82.7258L428.02 87.6976L431.067 88.6833C431.191 90.3675 431.458 92.0381 431.864 93.677L429.287 95.5825L431.034 100.237L434.223 99.9959C434.989 101.497 435.877 102.933 436.876 104.289L435.227 107.027L438.624 110.662L441.463 109.206C442.739 110.301 444.105 111.287 445.547 112.152L445.077 115.317L449.598 117.387L451.673 114.955C453.276 115.45 454.915 115.816 456.576 116.05L457.351 119.161L462.309 119.347L463.303 116.28C464.975 116.153 466.634 115.882 468.26 115.47L470.161 118.044L474.812 116.302L474.561 113.105C476.058 112.342 477.487 111.452 478.831 110.443L481.572 112.163ZM455.779 91.213C454.825 90.1883 454.196 88.9029 453.971 87.5195C453.746 86.1362 453.935 84.7169 454.515 83.4414C455.094 82.1658 456.038 81.0913 457.226 80.3537C458.415 79.6161 459.795 79.2486 461.191 79.2976C462.588 79.3466 463.939 79.8101 465.073 80.6292C466.207 81.4484 467.074 82.5865 467.563 83.8995C468.052 85.2126 468.142 86.6416 467.821 88.0058C467.5 89.37 466.783 90.6081 465.76 91.5634C465.081 92.2052 464.282 92.7057 463.409 93.0357C462.536 93.3658 461.607 93.519 460.675 93.4864C459.742 93.4538 458.826 93.2361 457.978 92.8459C457.13 92.4556 456.368 91.9006 455.735 91.213H455.779Z" fill="#EBEBEB"/>
<path d="M349.44 259.917L338.149 252.087C337.042 248.01 335.52 244.057 333.606 240.293L336.5 228.903L320.12 211.316L308.588 213.429C304.97 211.256 301.139 209.461 297.155 208.074L290.144 196.236L266.12 195.414L258.323 206.738C254.263 207.847 250.325 209.37 246.573 211.283L235.217 208.381L217.679 224.807L219.787 236.35C217.621 239.985 215.835 243.835 214.458 247.838L202.653 254.869L201.834 278.961L213.136 286.781C214.225 290.88 215.744 294.852 217.668 298.63L214.742 309.921L231.122 327.508L242.577 325.406C246.222 327.582 250.078 329.38 254.086 330.772L261.086 342.588L285.11 343.421L292.896 332.097C296.994 330.987 300.967 329.461 304.755 327.541L316.047 330.432L333.595 314.005L331.487 302.463C333.659 298.827 335.445 294.973 336.816 290.964L348.621 283.933L349.44 259.917ZM274.692 296.483C269.359 296.301 264.2 294.536 259.866 291.413C255.533 288.289 252.221 283.948 250.348 278.936C248.475 273.925 248.125 268.47 249.344 263.259C250.562 258.049 253.294 253.318 257.194 249.665C261.093 246.011 265.985 243.599 271.251 242.734C276.518 241.869 281.921 242.589 286.78 244.803C291.638 247.018 295.732 250.627 298.545 255.175C301.358 259.723 302.763 265.005 302.582 270.354C302.332 277.527 299.253 284.308 294.022 289.207C288.791 294.106 281.835 296.723 274.682 296.483H274.692Z" fill="#EBEBEB"/>
<path d="M375.157 191.647H375.08L356.167 191.001C355.784 190.994 355.408 190.89 355.076 190.698C354.744 190.507 354.466 190.234 354.267 189.906L349.167 181.309C346.418 180.301 343.759 179.063 341.217 177.608L333.06 179.02C332.68 179.09 332.289 179.062 331.922 178.94C331.555 178.817 331.226 178.604 330.963 178.319L318.045 164.455C317.774 164.168 317.581 163.815 317.486 163.432C317.39 163.048 317.395 162.646 317.499 162.265L319.563 154.15C318.284 151.52 317.239 148.783 316.44 145.969L308.217 140.275C307.898 140.055 307.64 139.758 307.466 139.412C307.292 139.065 307.209 138.68 307.223 138.293L307.868 119.325C307.88 118.942 307.987 118.568 308.177 118.236C308.367 117.904 308.636 117.623 308.96 117.419L317.554 112.305C318.545 109.555 319.776 106.898 321.234 104.366L319.727 96.1192C319.656 95.7364 319.683 95.3419 319.806 94.9724C319.928 94.6029 320.141 94.2704 320.426 94.0056L334.25 81.0612C334.536 80.7884 334.887 80.5937 335.27 80.4959C335.652 80.3981 336.053 80.4004 336.434 80.5027L344.559 82.5835C347.174 81.3005 349.896 80.2488 352.694 79.4405L358.373 71.1942C358.584 70.8666 358.878 70.6015 359.226 70.4263C359.573 70.2511 359.961 70.1722 360.349 70.1976L379.252 70.8547C379.636 70.8628 380.012 70.9673 380.346 71.1586C380.68 71.3499 380.96 71.6219 381.163 71.9498L386.262 80.5575C388.991 81.5623 391.629 82.8007 394.147 84.259L402.402 82.7368C402.782 82.666 403.174 82.6931 403.541 82.8157C403.907 82.9383 404.237 83.1523 404.499 83.4377L417.417 97.302C417.686 97.5903 417.878 97.9428 417.973 98.326C418.069 98.7093 418.065 99.1107 417.963 99.4922L415.888 107.629C417.167 110.253 418.22 112.983 419.033 115.788L427.245 121.482C427.564 121.702 427.822 121.999 427.996 122.345C428.17 122.692 428.253 123.077 428.239 123.465L427.594 142.421C427.582 142.806 427.475 143.181 427.285 143.515C427.095 143.849 426.826 144.131 426.502 144.338L417.908 149.452C416.911 152.196 415.679 154.848 414.228 157.381L415.735 165.638C415.806 166.019 415.779 166.412 415.657 166.78C415.534 167.147 415.321 167.478 415.036 167.74L401.124 180.696C400.838 180.968 400.487 181.161 400.104 181.257C399.721 181.353 399.321 181.348 398.94 181.243L390.86 179.174C388.226 180.451 385.49 181.502 382.681 182.317L377.057 190.552C376.854 190.877 376.575 191.147 376.243 191.338C375.912 191.529 375.539 191.635 375.157 191.647ZM357.586 186.423L373.966 186.982L379.426 179.108C379.729 178.648 380.193 178.32 380.726 178.188C383.799 177.345 386.78 176.197 389.626 174.76C390.122 174.521 390.686 174.462 391.22 174.596L398.864 176.556L410.876 165.331L409.5 157.413C409.394 156.86 409.495 156.287 409.784 155.804C411.406 153.092 412.742 150.218 413.77 147.229C413.943 146.687 414.308 146.227 414.796 145.936L423.019 141.052L423.576 124.625L415.714 119.15C415.299 118.866 414.989 118.455 414.829 117.978C414.829 117.923 414.829 117.857 414.829 117.792C413.988 114.765 412.846 111.83 411.422 109.031C411.169 108.53 411.107 107.954 411.247 107.41L413.213 99.6565L402.02 87.6101L394.168 89.0557C393.62 89.1553 393.054 89.0543 392.574 88.7709C389.865 87.1411 386.996 85.7944 384.013 84.7518C383.842 84.6968 383.677 84.6234 383.521 84.5328C383.207 84.3358 382.944 84.0653 382.757 83.7443L377.832 75.4761L361.452 74.9066L355.992 82.8025C355.666 83.2654 355.186 83.5957 354.638 83.7334C351.597 84.5668 348.648 85.7079 345.836 87.1392C345.341 87.3928 344.77 87.4551 344.231 87.3144L336.5 85.3432L324.488 96.5682L325.929 104.42C326.015 104.916 325.942 105.425 325.722 105.877L325.613 106.063C323.988 108.785 322.653 111.67 321.627 114.671C321.446 115.185 321.09 115.619 320.622 115.897L312.399 120.792L311.842 137.219L319.716 142.695C320.165 143.003 320.49 143.461 320.633 143.987C321.452 147.062 322.59 150.043 324.029 152.88C324.107 153.041 324.169 153.21 324.215 153.383C324.297 153.744 324.297 154.118 324.215 154.478L322.249 162.144L333.442 174.191L341.239 172.756C341.784 172.656 342.346 172.757 342.823 173.041C345.552 174.668 348.439 176.014 351.438 177.06C351.979 177.221 352.437 177.586 352.716 178.078L357.586 186.423ZM367.709 165.649C367.305 165.649 366.901 165.649 366.497 165.649C357.419 165.488 348.772 161.739 342.438 155.216C336.103 148.694 332.594 139.926 332.674 130.821C332.754 121.716 336.416 113.012 342.864 106.602C349.312 100.192 358.024 96.5955 367.103 96.5955C376.182 96.5955 384.894 100.192 391.342 106.602C397.79 113.012 401.453 121.716 401.533 130.821C401.612 139.926 398.103 148.694 391.769 155.216C385.434 161.739 376.787 165.488 367.709 165.649ZM367.709 100.938C359.776 101.075 352.219 104.349 346.682 110.048C341.144 115.746 338.076 123.408 338.144 131.364C338.213 139.321 341.412 146.928 347.047 152.53C352.681 158.132 360.294 161.275 368.228 161.275C376.162 161.275 383.775 158.132 389.409 152.53C395.043 146.928 398.243 139.321 398.311 131.364C398.38 123.408 395.311 115.746 389.774 110.048C384.237 104.349 376.679 101.075 368.747 100.938H367.709Z" fill="#EBEBEB"/>
<path d="M418.717 55.1067L410.876 53.0041L408.779 45.1411L411.848 42.0747L415.08 48.7878L421.785 52.0403L418.717 55.1067Z" fill="#E0E0E0"/>
<path d="M419.197 49.8501C419.536 49.51 419.805 49.1062 419.989 48.6619C420.172 48.2175 420.267 47.7412 420.267 47.2602C420.267 46.7792 420.172 46.3029 419.989 45.8585C419.805 45.4141 419.536 45.0103 419.197 44.6702C418.858 44.3301 418.455 44.0603 418.012 43.8762C417.569 43.6921 417.094 43.5974 416.615 43.5974C416.135 43.5974 415.66 43.6921 415.217 43.8762C414.774 44.0603 414.371 44.3301 414.032 44.6702L417.93 38.8003L423.15 41.4505L424.297 46.9262L419.197 49.8501Z" fill="#E0E0E0"/>
<path d="M411.226 42.7099L416.97 36.9496L424.788 39.0412L426.896 46.8933L421.152 52.6537L413.322 50.5401L411.226 42.7099ZM421.654 47.419C422.165 46.9057 422.513 46.252 422.654 45.5405C422.795 44.8289 422.723 44.0915 422.446 43.4213C422.169 42.7512 421.7 42.1784 421.098 41.7755C420.497 41.3725 419.79 41.1574 419.066 41.1574C418.343 41.1574 417.636 41.3725 417.034 41.7755C416.433 42.1784 415.964 42.7512 415.687 43.4213C415.41 44.0915 415.337 44.8289 415.478 45.5405C415.619 46.252 415.967 46.9057 416.478 47.419C417.17 48.0995 418.102 48.479 419.071 48.4749C420.04 48.4708 420.968 48.0835 421.654 47.3971V47.419Z" fill="#F0F0F0"/>
<path d="M98.52 264.703L102.724 263.564L103.849 259.348L102.211 257.705L100.475 261.308L96.8711 263.049L98.52 264.703Z" fill="#E0E0E0"/>
<path d="M98.2799 261.877C97.9513 261.501 97.7777 261.014 97.7942 260.514C97.8107 260.014 98.0162 259.539 98.3689 259.185C98.7215 258.831 99.1951 258.625 99.6936 258.609C100.192 258.592 100.678 258.766 101.054 259.096L98.9678 255.953L96.0959 257.355L95.4844 260.311L98.2799 261.877Z" fill="#E0E0E0"/>
<path d="M102.539 258.034L99.4593 254.945L95.2551 256.04L94.1631 260.257L97.1879 263.378L101.392 262.283L102.539 258.034ZM96.9477 260.563C96.7452 260.385 96.5813 260.168 96.4661 259.924C96.3509 259.68 96.2869 259.415 96.278 259.145C96.2691 258.876 96.3155 258.607 96.4143 258.356C96.5132 258.105 96.6623 257.877 96.8526 257.686C97.0429 257.495 97.2702 257.346 97.5205 257.247C97.7708 257.148 98.0387 257.101 98.3076 257.11C98.5765 257.119 98.8408 257.183 99.084 257.299C99.3272 257.414 99.5441 257.579 99.7214 257.782C100.05 258.158 100.224 258.646 100.207 259.145C100.191 259.645 99.9851 260.12 99.6324 260.474C99.2797 260.828 98.8061 261.034 98.3076 261.05C97.8091 261.067 97.3229 260.893 96.9477 260.563Z" fill="#F0F0F0"/>
<path d="M83.3852 33.5765L86.8796 37.0809C87.3166 37.5117 87.9049 37.753 88.5176 37.753C89.1303 37.753 89.7186 37.5117 90.1556 37.0809C90.5825 36.6413 90.8214 36.0519 90.8214 35.4382C90.8214 34.8246 90.5825 34.2352 90.1556 33.7956L86.6721 30.3021C86.2337 29.874 85.646 29.6344 85.0341 29.6344C84.4222 29.6344 83.8345 29.874 83.3961 30.3021C82.9684 30.7385 82.7279 31.3252 82.7258 31.9371C82.7238 32.5489 82.9604 33.1373 83.3852 33.5765Z" fill="#F0F0F0"/>
<path d="M80.9283 24.8703C81.8401 24.616 82.8062 24.6343 83.7078 24.9229C84.6094 25.2116 85.4074 25.7579 86.0037 26.495C86.6 27.2321 86.9687 28.1277 87.0646 29.072C87.1604 30.0163 86.9792 30.9681 86.5432 31.8105C86.1072 32.6529 85.4354 33.3493 84.6102 33.8142C83.7851 34.2791 82.8425 34.4922 81.8983 34.4274C80.9541 34.3626 80.0493 34.0227 79.295 33.4493C78.5407 32.876 77.9698 32.0943 77.6523 31.2001C77.4507 30.5689 77.3757 29.9039 77.4314 29.2434C77.4872 28.5829 77.6726 27.94 77.9771 27.3517C78.2816 26.7634 78.6991 26.2413 79.2056 25.8154C79.7121 25.3895 80.2975 25.0684 80.9283 24.8703Z" fill="#E0E0E0"/>
<path d="M77.1278 30.614L77.6335 32.0258L88.0131 28.2864L87.5074 26.8746L77.1278 30.614Z" fill="#F0F0F0"/>
<path d="M273 408C389.934 408 484.728 402.45 484.728 395.603C484.728 388.757 389.934 383.206 273 383.206C156.066 383.206 61.2722 388.757 61.2722 395.603C61.2722 402.45 156.066 408 273 408Z" fill="#F5F5F5"/>
<path d="M94.6982 71.895C93.6062 67.0655 94.0867 63.0135 96.1615 59.7062C98.2363 56.3989 101.621 54.2306 106.437 53.1355C111.253 52.0403 115.413 52.4784 118.668 54.5153C121.922 56.5523 124.128 59.991 125.22 64.7C125.991 67.6065 126.054 70.6561 125.405 73.5924C124.77 76.031 123.429 78.2261 121.55 79.9003C119.319 81.7842 116.641 83.0591 113.775 83.6019C110.966 84.3499 108.024 84.451 105.17 83.8976C102.69 83.2929 100.446 81.9581 98.7277 80.0646C96.6748 77.7554 95.2825 74.9327 94.6982 71.895ZM103.805 69.858C104.483 72.8368 105.52 74.8518 106.918 75.9031C107.639 76.3856 108.451 76.7168 109.303 76.8767C110.155 77.0367 111.031 77.0221 111.878 76.8339C112.725 76.6456 113.525 76.2876 114.23 75.7814C114.935 75.2752 115.531 74.6312 115.981 73.8881C116.768 72.3659 116.778 69.9457 116.036 66.6493C115.403 63.8677 114.38 61.9622 112.967 60.9328C112.256 60.4209 111.44 60.0756 110.578 59.922C109.716 59.7685 108.831 59.8108 107.988 60.0457C107.144 60.2043 106.347 60.5527 105.656 61.0649C104.966 61.577 104.4 62.2395 104.002 63.0026C103.194 64.6124 103.118 66.8026 103.805 69.858Z" fill="#262B38"/>
<path d="M129.5 68.2812C129.112 66.7887 129.043 65.231 129.297 63.7099C129.551 62.1888 130.123 60.7387 130.974 59.4545C131.929 58.0901 133.143 56.9283 134.547 56.0356C135.95 55.1429 137.516 54.537 139.154 54.2526C143.427 53.2816 146.936 53.789 149.68 55.7748C151.99 57.5705 153.56 60.1555 154.092 63.0375C154.624 65.9194 154.08 68.8968 152.563 71.4023C150.86 74.0087 148.086 75.7463 144.242 76.6151C141.281 77.4454 138.121 77.1891 135.332 75.8923C133.84 75.1611 132.537 74.0935 131.525 72.773C130.514 71.4525 129.821 69.9151 129.5 68.2812ZM137.701 66.3866C137.922 67.9169 138.667 69.3224 139.809 70.3619C140.261 70.7054 140.783 70.9459 141.337 71.0668C141.892 71.1877 142.466 71.1861 143.02 71.0621C143.574 70.9381 144.094 70.6947 144.545 70.3487C144.995 70.0028 145.365 69.5625 145.629 69.0587C146.201 67.5877 146.255 65.9651 145.782 64.4592C145.552 62.9647 144.816 61.5955 143.696 60.5824C143.262 60.2293 142.752 59.9813 142.207 59.8579C141.661 59.7344 141.095 59.7388 140.551 59.8706C139.985 59.9884 139.452 60.234 138.994 60.5888C138.537 60.9436 138.165 61.3983 137.909 61.9185C137.321 63.3377 137.247 64.9187 137.701 66.3866Z" fill="#262B38"/>
<path d="M162.249 80.5685L155.555 51.0001L163.199 49.2479L163.92 52.4128C164.459 51.1506 165.243 50.008 166.224 49.0508C167.302 48.1337 168.588 47.4979 169.97 47.2C171.246 46.8517 172.59 46.8317 173.876 47.1418C175.163 47.4519 176.351 48.0821 177.33 48.9741C179.488 50.9974 180.952 53.6541 181.512 56.5633C182.32 60.1225 182.08 63.0355 180.813 65.3243C180.211 66.4187 179.378 67.3685 178.373 68.1079C177.368 68.8473 176.215 69.3585 174.993 69.6063C173.816 69.8862 172.596 69.9345 171.4 69.7486C170.254 69.5472 169.161 69.111 168.19 68.4673L170.505 78.6849L162.249 80.5685ZM166.192 59.9144C166.392 61.2822 167.074 62.5329 168.113 63.4407C168.53 63.7609 169.014 63.9823 169.529 64.0885C170.043 64.1947 170.574 64.1829 171.084 64.054C171.557 63.9589 172.001 63.7538 172.38 63.4552C172.759 63.1565 173.063 62.7727 173.268 62.3346C173.732 60.964 173.732 59.4781 173.268 58.1075C173.068 56.7328 172.41 55.4666 171.4 54.5154C171.026 54.2035 170.585 53.9821 170.112 53.8682C169.638 53.7542 169.145 53.7509 168.67 53.8584C168.169 53.967 167.698 54.1879 167.293 54.5046C166.889 54.8213 166.56 55.2255 166.333 55.6872C165.799 57.0372 165.749 58.5315 166.192 59.9144Z" fill="#262B38"/>
<path d="M185.017 60.5605L192.967 57.9432C193.39 58.7139 194.048 59.3281 194.845 59.6954C195.703 59.9445 196.611 59.9644 197.479 59.753C198.346 59.5417 199.144 59.1066 199.792 58.4907C199.973 58.2975 200.105 58.0628 200.175 57.8071C200.246 57.5514 200.253 57.2824 200.196 57.0232C200.131 56.7268 199.978 56.4568 199.758 56.2479C199.538 56.0391 199.261 55.901 198.962 55.8515C197.728 55.7156 196.483 55.7156 195.25 55.8515C193.178 56.0281 191.096 56.0281 189.025 55.8515C187.813 55.675 186.676 55.1544 185.749 54.3511C184.76 53.4928 184.077 52.3348 183.803 51.0524C183.529 49.7699 183.68 48.4329 184.231 47.2438C184.868 45.9713 185.858 44.9103 187.081 44.1884C188.823 43.196 190.716 42.4968 192.683 42.1186C194.561 41.6074 196.503 41.3713 198.449 41.4177C199.671 41.4966 200.855 41.8725 201.9 42.5128C203.013 43.2659 203.957 44.243 204.673 45.3821L197.029 47.9118C196.744 47.3412 196.269 46.8882 195.686 46.6305C194.89 46.3447 194.026 46.3066 193.207 46.521C192.484 46.6221 191.813 46.9565 191.296 47.4738C191.132 47.6501 191.014 47.864 190.951 48.0969C190.888 48.3298 190.883 48.5745 190.936 48.8098C190.995 49.0688 191.131 49.3036 191.326 49.4835C191.521 49.6634 191.766 49.7798 192.028 49.8173C193.249 49.9594 194.483 49.9336 195.697 49.7407C197.803 49.4346 199.939 49.4052 202.053 49.6531C203.382 49.8414 204.627 50.4163 205.634 51.3067C206.545 52.1348 207.178 53.2249 207.447 54.4278C207.727 55.7177 207.624 57.0614 207.152 58.2936C206.575 59.7524 205.57 61.0011 204.269 61.8747C202.354 63.1303 200.208 63.9903 197.958 64.4044C194.063 65.2951 191.151 65.3718 189.222 64.6344C187.342 63.8816 185.832 62.4186 185.017 60.5605Z" fill="#262B38"/>
<path d="M211.684 33.478H220.649V40.3773L219 54.2525H213.453L211.684 40.3992V33.478ZM212.121 56.3442H220.486V63.7692H212.121V56.3442Z" fill="#262B38"/>
<path d="M140.519 127.67H140.322C135.408 125.753 132.471 123.892 130.942 121.647C129.745 121.874 128.507 121.705 127.415 121.165C126.135 120.537 125.073 119.537 124.368 118.295C123.997 118.581 123.56 118.768 123.098 118.838C122.636 118.909 122.164 118.862 121.725 118.701C120.379 118.196 119.231 117.27 118.449 116.061C117.96 116.427 117.352 116.595 116.746 116.532C113.47 116.269 109.102 109.786 108.785 102.887C108.782 102.741 108.834 102.6 108.932 102.492C109.029 102.384 109.164 102.318 109.309 102.307C109.381 102.304 109.453 102.315 109.52 102.34C109.587 102.365 109.649 102.403 109.702 102.451C109.755 102.5 109.797 102.559 109.827 102.624C109.857 102.69 109.874 102.76 109.877 102.832C110.183 109.403 114.365 115.24 116.844 115.437C117.024 115.457 117.207 115.442 117.381 115.391C117.556 115.34 117.718 115.256 117.86 115.141C117.006 113.58 116.469 111.864 116.282 110.093C116.094 108.322 116.259 106.532 116.768 104.825C117.707 101.54 118.537 100.248 119.541 100.445C121.419 100.916 121.168 108.111 120.175 112.809C120.024 113.656 119.713 114.467 119.257 115.196C119.901 116.279 120.873 117.127 122.031 117.616C122.34 117.734 122.676 117.761 122.999 117.693C123.322 117.625 123.619 117.465 123.855 117.233C123.003 115.12 122.763 112.228 123.986 108.549C125.514 103.697 126.17 103.566 126.508 103.478C126.636 103.452 126.768 103.46 126.891 103.502C127.014 103.545 127.123 103.62 127.207 103.719C128.223 104.869 127.011 112.404 125.744 116.127C125.595 116.575 125.39 117.002 125.132 117.397C125.718 118.582 126.673 119.543 127.851 120.135C128.625 120.512 129.484 120.675 130.341 120.606C130.243 120.398 130.155 120.19 130.068 119.971C129.205 117.616 129.631 114.912 131.368 111.67C132.514 109.534 133.453 108.527 134.327 108.527C134.559 108.53 134.785 108.6 134.979 108.728C135.172 108.856 135.325 109.037 135.419 109.25C136.369 111.013 135.681 116.828 133.803 119.719C133.363 120.382 132.751 120.912 132.034 121.252C133.497 123.18 136.282 124.877 140.77 126.607C140.837 126.632 140.899 126.669 140.951 126.718C141.004 126.767 141.046 126.825 141.076 126.891C141.105 126.956 141.121 127.027 141.123 127.098C141.125 127.17 141.113 127.242 141.086 127.308C141.044 127.422 140.966 127.519 140.863 127.585C140.761 127.65 140.64 127.68 140.519 127.67ZM134.316 109.633C134.316 109.633 133.694 109.633 132.318 112.207C130.734 115.141 130.33 117.562 131.084 119.599C131.175 119.851 131.285 120.096 131.411 120.332C132.003 120.087 132.506 119.667 132.853 119.128C134.382 116.784 135.113 111.966 134.545 110.082C134.469 109.699 134.316 109.633 134.316 109.633ZM126.475 105.023C125.884 106.269 125.395 107.562 125.012 108.888C124.175 111.187 124.03 113.681 124.597 116.061L124.695 115.777C125.842 112.305 126.454 108.679 126.508 105.023H126.475ZM119.29 101.573C119.104 101.737 118.569 102.427 117.816 105.099C116.925 108.098 117.206 111.325 118.602 114.123C118.826 113.633 118.991 113.119 119.094 112.59C120.262 107.213 119.934 102.35 119.323 101.573H119.29Z" fill="#262B38"/>
<path d="M182.037 185.076C180.291 185.093 178.572 184.643 177.057 183.773C176.932 183.698 176.842 183.577 176.805 183.435C176.768 183.294 176.788 183.144 176.86 183.017C176.896 182.956 176.944 182.902 177.001 182.859C177.058 182.816 177.123 182.785 177.193 182.768C177.262 182.75 177.334 182.747 177.404 182.758C177.475 182.769 177.542 182.794 177.603 182.831C181.501 185.12 186.536 183.521 187.573 181.846C187.648 181.741 187.701 181.622 187.729 181.495C187.757 181.369 187.76 181.239 187.737 181.112C185.743 181.227 183.769 180.663 182.135 179.513C179.35 177.772 179.132 177.246 179.154 176.83C179.159 176.71 179.196 176.594 179.262 176.494C179.327 176.394 179.418 176.313 179.525 176.261C180.617 175.713 185.542 177.98 187.595 179.338C187.841 179.502 188.068 179.693 188.272 179.907C189.079 179.724 189.806 179.286 190.347 178.659C190.651 178.3 190.871 177.877 190.991 177.421H190.773C189.025 177.597 187.278 176.841 185.411 175.111C184.122 173.928 183.631 173.107 183.795 172.46C183.844 172.279 183.945 172.115 184.084 171.989C184.223 171.863 184.396 171.78 184.581 171.749C186.088 171.365 189.822 172.964 191.34 174.64C191.679 175.004 191.919 175.449 192.039 175.932C193.47 175.264 194.977 173.742 196.757 171.256C196.798 171.197 196.851 171.146 196.912 171.107C196.973 171.069 197.04 171.043 197.112 171.03C197.183 171.018 197.255 171.02 197.326 171.036C197.396 171.052 197.462 171.082 197.521 171.124C197.638 171.21 197.717 171.338 197.742 171.481C197.766 171.624 197.734 171.771 197.652 171.891C195.588 174.782 193.863 176.425 192.138 177.093C192.048 177.902 191.717 178.666 191.187 179.283C190.558 180.016 189.732 180.552 188.807 180.827C188.859 181.089 188.859 181.358 188.806 181.619C188.754 181.88 188.65 182.129 188.501 182.349C187.584 183.915 184.941 185.076 182.037 185.076ZM181.065 177.476C181.436 177.75 181.96 178.111 182.714 178.571C183.888 179.366 185.237 179.862 186.645 180.017C184.887 178.96 183.015 178.107 181.065 177.476ZM184.876 172.822C185.189 173.414 185.625 173.933 186.153 174.344C187.77 175.844 189.244 176.534 190.663 176.359H191.013C190.935 176.019 190.769 175.705 190.532 175.45C189.003 173.72 185.64 172.647 184.876 172.822Z" fill="#262B38"/>
<path d="M196.494 183.576L179.481 186.675L164.029 102.109L131.204 108.089L77.6958 203.365L83.4397 234.806L152.072 222.31L156.768 248.024L189.593 242.023L184.897 216.309L201.911 213.21L196.494 183.576ZM110.39 199.313L138.782 149.408L146.699 192.709L110.39 199.313Z" fill="#5D85EC"/>
<path d="M333.53 96.3711C333.013 91.055 331.839 85.824 330.035 80.7984C328.18 75.9844 325.602 71.4827 322.391 67.4488C318.591 62.7558 313.871 58.8944 308.523 56.1033C302.699 52.8983 294.975 50.6679 285.351 49.4121C265.367 46.7984 249.795 50.3539 238.635 60.0786C227.475 69.8033 220.122 88.4205 216.576 115.93C215.161 126.211 214.795 136.61 215.484 146.966C216.212 156.457 217.952 164.097 220.704 169.887C224.206 177.694 229.73 184.418 236.702 189.358C243.596 194.213 253.06 197.422 265.094 198.984C286.483 201.781 302.342 197.659 312.672 186.62C323.003 175.582 329.846 156.928 333.202 130.659C334.694 119.285 334.804 107.772 333.53 96.3711Z" fill="#5D85EC"/>
<path d="M274.933 187.737C272.301 187.65 269.473 187.409 266.623 187.037C256.62 185.733 248.889 183.193 243.626 179.491C238.376 175.774 234.226 170.704 231.614 164.816L231.559 164.696C229.462 160.315 228.086 154.018 227.486 146.079C226.85 136.542 227.186 126.964 228.49 117.496C232.389 87.1391 240.437 74.4686 246.498 69.19C253.574 63.0354 263.129 60.2538 275.687 60.6919C278.264 60.7795 280.994 61.0095 283.8 61.3708C291.859 62.466 298.247 64.2182 302.768 66.6932C306.675 68.7107 310.133 71.501 312.935 74.8956C315.386 77.9616 317.356 81.385 318.777 85.0475C320.228 89.1313 321.167 93.3801 321.573 97.6962C322.737 108.154 322.631 118.716 321.256 129.148C318.231 152.737 312.378 169.317 303.871 178.429C297.559 185.175 288.092 188.285 274.922 187.781L274.933 187.737Z" fill="#262B38"/>
<path d="M296.303 96.6887L296.445 92.5382L293.901 91.7059C293.793 90.3021 293.566 88.91 293.224 87.5444L295.408 85.9455L293.945 82.0469L291.28 82.2659C290.654 81.0129 289.923 79.815 289.096 78.6848L290.472 76.3741L287.633 73.3406L285.252 74.5672C284.187 73.6488 283.048 72.8209 281.845 72.0922L282.228 69.442L278.449 67.7226L276.724 69.7596C275.388 69.3253 274.018 69.003 272.629 68.7959L271.985 66.2004L267.835 66.058L267.016 68.5987C265.617 68.711 264.229 68.9381 262.866 69.2777L261.261 67.0875L257.374 68.544L257.592 71.2161C256.343 71.845 255.148 72.5776 254.021 73.4063L251.728 72.0155L248.692 74.8519L249.915 77.2502C248.997 78.3177 248.175 79.4648 247.458 80.678L244.816 80.2728L243.09 84.0619L245.132 85.7922C244.689 87.133 244.367 88.5111 244.171 89.9099L241.572 90.567L241.43 94.7065L243.975 95.5388C244.081 96.9465 244.308 98.3424 244.652 99.7113L242.468 101.299L243.931 105.198L246.596 104.979C247.216 106.235 247.947 107.434 248.78 108.56L247.393 110.871L250.232 113.904L252.613 112.688C253.678 113.603 254.818 114.428 256.02 115.153L255.626 117.803L259.405 119.522L261.141 117.496C262.481 117.928 263.854 118.247 265.247 118.449L265.891 121.055L270.03 121.198L270.849 118.646C272.253 118.539 273.644 118.312 275.009 117.967L276.593 120.157L280.48 118.701L280.273 116.04C281.518 115.403 282.711 114.67 283.844 113.849L286.137 115.229L289.173 112.393L287.961 109.994C288.875 108.931 289.694 107.787 290.407 106.578L293.049 106.972L294.775 103.183L292.744 101.453C293.178 100.114 293.496 98.7397 293.694 97.3458L296.303 96.6887ZM268.348 110.126C265.114 110.007 261.987 108.931 259.362 107.032C256.738 105.132 254.733 102.496 253.601 99.4553C252.469 96.4145 252.26 93.1056 253.002 89.9462C253.744 86.7868 255.402 83.9185 257.767 81.7033C260.133 79.4882 263.1 78.0255 266.294 77.4999C269.488 76.9743 272.765 77.4093 275.713 78.7501C278.66 80.0909 281.145 82.2772 282.855 85.0333C284.564 87.7893 285.421 90.9915 285.318 94.2356C285.249 96.398 284.755 98.5253 283.864 100.496C282.972 102.466 281.702 104.24 280.125 105.717C278.548 107.193 276.696 108.343 274.675 109.099C272.654 109.856 270.504 110.205 268.348 110.126Z" fill="#5D85EC"/>
<path opacity="0.3" d="M313.535 172.887L313.841 170.084L312.159 169.405C312.157 168.451 312.076 167.499 311.919 166.558L313.437 165.583L312.662 162.878H310.849C310.49 161.998 310.056 161.152 309.549 160.348L310.576 158.859L308.829 156.669L307.158 157.37C306.481 156.698 305.75 156.083 304.974 155.53L305.378 153.756L302.921 152.398L301.632 153.701C300.755 153.339 299.849 153.049 298.924 152.836L298.618 151.051L295.834 150.733L295.146 152.42C294.197 152.424 293.251 152.512 292.318 152.682L291.346 151.127L288.648 151.927V153.745C287.771 154.108 286.927 154.548 286.126 155.059L284.641 153.964L282.457 155.716L283.156 157.391C282.49 158.071 281.88 158.804 281.332 159.582L279.563 159.187L278.22 161.651L279.508 162.933C279.142 163.815 278.854 164.727 278.646 165.66L276.855 165.955L276.56 168.748L278.231 169.449C278.232 170.396 278.316 171.342 278.482 172.274L276.942 173.249L277.729 175.954H279.552C279.917 176.829 280.355 177.672 280.863 178.473L279.771 179.962L281.518 182.152L283.21 181.44C283.882 182.114 284.613 182.726 285.394 183.269L285.012 185.076L287.469 186.423L288.747 185.142C289.625 185.496 290.531 185.778 291.455 185.985L291.772 187.781L294.556 188.088L295.233 186.412C296.199 186.411 297.163 186.33 298.116 186.171L299.088 187.715L301.774 186.927V185.109C302.652 184.739 303.499 184.3 304.308 183.795L305.771 184.89L307.955 183.127L307.245 181.451C307.918 180.772 308.535 180.04 309.091 179.261L310.849 179.655L312.203 177.191L310.914 175.921C311.266 175.039 311.547 174.131 311.755 173.205L313.535 172.887ZM299.481 171.792C299.019 172.64 298.317 173.332 297.463 173.779C296.609 174.226 295.641 174.41 294.684 174.306C293.726 174.202 292.82 173.815 292.081 173.195C291.342 172.575 290.804 171.749 290.533 170.821C290.263 169.894 290.272 168.907 290.561 167.985C290.85 167.063 291.405 166.248 292.156 165.643C292.907 165.038 293.82 164.669 294.78 164.585C295.74 164.5 296.703 164.702 297.548 165.167C298.678 165.791 299.515 166.838 299.878 168.08C300.24 169.321 300.097 170.656 299.481 171.792Z" fill="#5D85EC"/>
<path d="M329.009 125.556L325.733 123.3C325.41 122.127 324.971 120.99 324.422 119.905L325.252 116.62L320.535 111.55L317.259 112.163C316.22 111.542 315.122 111.025 313.983 110.619L311.963 107.202L305.05 106.972L302.801 110.257C301.63 110.576 300.495 111.016 299.416 111.571L296.14 110.728L291.084 115.47L291.695 118.755C291.068 119.793 290.551 120.894 290.155 122.041L286.759 124.067L286.519 130.999L289.795 133.255C290.113 134.436 290.552 135.581 291.105 136.672L290.276 139.957L294.993 145.028L298.269 144.425C299.309 145.045 300.406 145.562 301.545 145.969L303.554 149.375L310.478 149.616L312.716 146.331C313.897 146.009 315.042 145.569 316.134 145.017L319.41 145.849L324.466 141.118L323.865 137.833C324.486 136.791 325.002 135.691 325.405 134.547L328.801 132.521L329.009 125.556ZM307.464 136.091C305.927 136.038 304.44 135.53 303.191 134.629C301.943 133.729 300.988 132.478 300.449 131.033C299.91 129.589 299.81 128.017 300.161 126.515C300.513 125.014 301.301 123.651 302.425 122.599C303.549 121.546 304.959 120.852 306.477 120.603C307.995 120.355 309.552 120.563 310.952 121.202C312.351 121.841 313.53 122.882 314.34 124.193C315.15 125.504 315.554 127.026 315.501 128.568C315.427 130.633 314.539 132.585 313.033 133.995C311.526 135.406 309.523 136.159 307.464 136.091Z" fill="white"/>
<path d="M352.716 70.2195L353.284 68.8506C353.67 68.6324 354.036 68.3794 354.376 68.0949H355.643L357.128 65.9047L356.647 64.7329C356.831 64.3426 356.978 63.9355 357.084 63.5173L358.176 62.5098L357.718 59.9362L356.342 59.3668C356.126 58.9784 355.874 58.6117 355.588 58.2716V57.0013L353.459 55.5119L352.279 56.0047C351.848 55.8525 351.401 55.7496 350.947 55.6981L349.942 54.603L347.387 55.0629L346.808 56.4428C346.403 56.6535 346.019 56.9028 345.662 57.1875H344.406L342.921 59.3777L343.401 60.5495C343.255 60.9833 343.152 61.431 343.096 61.8856L342.004 62.904L342.462 65.4666L343.838 66.0361C344.047 66.4264 344.295 66.7935 344.581 67.1312V68.3906L346.765 69.88L347.933 69.3981C348.37 69.5405 348.82 69.6395 349.276 69.6938L350.281 70.7889L352.716 70.2195ZM347.256 63.123C347.153 62.5516 347.221 61.9624 347.452 61.4298C347.683 60.8972 348.066 60.4452 348.553 60.1311C349.04 59.817 349.609 59.6549 350.188 59.6652C350.767 59.6755 351.33 59.8578 351.805 60.1891C352.281 60.5203 352.648 60.9857 352.86 61.5261C353.071 62.0666 353.119 62.6579 352.995 63.2253C352.872 63.7927 352.583 64.3105 352.166 64.7134C351.749 65.1163 351.222 65.386 350.652 65.4885C349.89 65.6227 349.105 65.4495 348.469 65.0065C347.833 64.5635 347.397 63.8866 347.256 63.123Z" fill="#5D85EC"/>
<path d="M322.806 62.9588L321.966 62.247C323.767 60.0057 325.994 58.1446 328.518 56.7714L329.031 57.7351C326.631 59.0453 324.515 60.821 322.806 62.9588Z" fill="#5D85EC"/>
<path d="M331.521 56.727L331.095 55.7197C335.127 53.9625 339.537 53.2545 343.915 53.6612L343.806 54.7561C339.61 54.3596 335.383 55.0378 331.521 56.727Z" fill="#5D85EC"/>
<path d="M329.457 64.3058L328.561 63.6925C331.192 60.1297 335.021 57.6436 339.339 56.6946L339.547 57.7898C335.511 58.6736 331.929 60.9871 329.457 64.3058Z" fill="#5D85EC"/>
<path d="M256.992 169.744C256.843 169.74 256.702 169.677 256.599 169.569L254.316 167.204C253.153 167.098 252.001 166.885 250.876 166.569L247.306 168.146C247.227 168.189 247.139 168.211 247.049 168.211C246.959 168.211 246.871 168.189 246.792 168.146L240.808 164.17C240.731 164.119 240.668 164.049 240.626 163.967C240.584 163.884 240.564 163.792 240.568 163.699V159.801C239.838 158.885 239.194 157.902 238.646 156.866L235.578 155.683C235.492 155.65 235.415 155.595 235.356 155.524C235.297 155.453 235.257 155.369 235.239 155.278L233.819 148.225C233.801 148.135 233.805 148.042 233.832 147.954C233.858 147.866 233.907 147.786 233.972 147.722L236.331 145.433C236.444 144.267 236.656 143.113 236.964 141.983L235.392 138.402C235.349 138.323 235.326 138.235 235.326 138.145C235.326 138.055 235.349 137.966 235.392 137.887L239.356 131.886C239.405 131.807 239.475 131.743 239.557 131.7C239.64 131.658 239.733 131.639 239.825 131.645L243.713 131.7C244.624 130.964 245.604 130.318 246.64 129.772L247.83 126.695C247.861 126.61 247.914 126.534 247.983 126.474C248.051 126.415 248.134 126.374 248.223 126.356L255.255 124.932C255.345 124.912 255.439 124.916 255.527 124.943C255.615 124.969 255.694 125.019 255.758 125.085L258.04 127.451C259.207 127.557 260.362 127.77 261.491 128.086L265.051 126.509C265.131 126.466 265.221 126.443 265.313 126.443C265.404 126.443 265.494 126.466 265.575 126.509L271.548 130.484C271.624 130.537 271.686 130.608 271.73 130.69C271.773 130.771 271.797 130.862 271.799 130.955L271.734 134.854C272.468 135.77 273.115 136.752 273.667 137.789L276.724 138.982C276.809 139.014 276.885 139.067 276.944 139.136C277.003 139.205 277.044 139.288 277.063 139.377L278.493 146.429C278.51 146.519 278.505 146.612 278.478 146.7C278.452 146.788 278.404 146.868 278.34 146.933L275.971 149.233C275.862 150.396 275.65 151.546 275.337 152.671L276.91 156.253C276.953 156.333 276.975 156.424 276.975 156.515C276.975 156.607 276.953 156.697 276.91 156.778L273 162.725C272.949 162.799 272.881 162.86 272.801 162.902C272.721 162.944 272.632 162.966 272.542 162.966L268.643 162.911C267.729 163.637 266.754 164.282 265.728 164.838L264.537 167.916C264.505 168.002 264.451 168.079 264.38 168.139C264.309 168.198 264.224 168.238 264.133 168.255L257.101 169.744H256.992ZM250.844 165.364C250.894 165.354 250.946 165.354 250.997 165.364C252.176 165.708 253.387 165.932 254.611 166.032C254.742 166.048 254.865 166.105 254.961 166.196L257.145 168.496L263.587 167.193L264.745 164.192C264.799 164.071 264.891 163.971 265.007 163.907C266.098 163.342 267.126 162.663 268.075 161.881C268.176 161.797 268.305 161.753 268.436 161.761L272.225 161.816L275.851 156.34L274.322 152.858C274.278 152.737 274.278 152.606 274.322 152.485C274.659 151.301 274.883 150.087 274.988 148.86C274.999 148.728 275.057 148.604 275.152 148.51L277.445 146.32L276.145 139.859L273.164 138.698C273.036 138.651 272.931 138.557 272.869 138.435C272.303 137.342 271.626 136.311 270.849 135.358C270.771 135.257 270.729 135.134 270.729 135.007V131.196L265.269 127.56L261.807 129.093C261.684 129.138 261.549 129.138 261.425 129.093C260.242 128.751 259.027 128.527 257.8 128.425C257.669 128.41 257.546 128.352 257.45 128.261L255.266 125.961L248.824 127.276L247.677 130.32C247.631 130.445 247.542 130.55 247.426 130.616C246.331 131.18 245.298 131.859 244.346 132.642C244.299 132.684 244.244 132.717 244.184 132.738C244.124 132.758 244.06 132.767 243.997 132.762L240.208 132.707L236.571 138.183L238.1 141.665C238.135 141.739 238.153 141.819 238.153 141.901C238.153 141.982 238.135 142.063 238.1 142.136C237.777 143.292 237.564 144.477 237.467 145.674C237.456 145.807 237.398 145.931 237.303 146.024L235.01 148.214L236.32 154.676L239.29 155.836C239.423 155.892 239.531 155.993 239.596 156.121C240.159 157.206 240.833 158.23 241.605 159.177C241.687 159.275 241.729 159.399 241.726 159.527V163.338L247.186 166.974L250.658 165.441C250.715 165.404 250.778 165.378 250.844 165.364ZM256.205 161.816C253.577 161.813 250.998 161.097 248.744 159.742C246.489 158.388 244.642 156.446 243.4 154.123C242.158 151.8 241.566 149.182 241.689 146.549C241.811 143.916 242.643 141.366 244.095 139.169C245.484 137.061 247.395 135.351 249.641 134.206C251.886 133.06 254.39 132.519 256.907 132.635C259.423 132.751 261.867 133.52 263.998 134.867C266.13 136.214 267.876 138.092 269.067 140.319C270.258 142.545 270.852 145.044 270.791 147.569C270.73 150.095 270.017 152.562 268.721 154.728C267.425 156.895 265.59 158.687 263.396 159.929C261.202 161.172 258.725 161.822 256.205 161.816ZM245.012 139.771C243.543 141.995 242.763 144.606 242.773 147.274C242.783 149.943 243.581 152.548 245.068 154.761C246.554 156.974 248.661 158.696 251.123 159.708C253.584 160.72 256.29 160.978 258.898 160.448C261.505 159.918 263.898 158.625 265.772 156.732C267.647 154.838 268.92 152.43 269.43 149.812C269.94 147.193 269.665 144.481 268.638 142.02C267.612 139.558 265.881 137.457 263.664 135.982C262.193 134.995 260.543 134.31 258.807 133.966C257.071 133.622 255.285 133.627 253.551 133.979C251.817 134.331 250.169 135.024 248.704 136.018C247.238 137.013 245.984 138.288 245.012 139.771Z" fill="white"/>
<path d="M465.006 193.454L447.862 191.132L459.197 105.921L426.131 101.453L345.924 175.505L341.709 207.187L410.821 216.539L407.371 242.461L440.436 246.929L443.887 221.018L461.032 223.34L465.006 193.454ZM378.28 181.714L420.606 143.024L414.796 186.653L378.28 181.714Z" fill="#5D85EC"/>
<path d="M430.39 246.119H430.248C430.107 246.092 429.981 246.01 429.899 245.891C429.817 245.772 429.786 245.626 429.811 245.483L455.364 105.373C455.393 105.232 455.475 105.108 455.593 105.027C455.711 104.945 455.856 104.912 455.998 104.935C456.139 104.962 456.265 105.043 456.346 105.162C456.428 105.281 456.46 105.428 456.434 105.57L430.936 245.67C430.911 245.796 430.843 245.91 430.743 245.992C430.644 246.074 430.519 246.119 430.39 246.119Z" fill="#262B38"/>
<path d="M452.995 107.727C452.986 107.966 452.883 108.19 452.709 108.353C452.535 108.515 452.304 108.601 452.066 108.592C451.829 108.584 451.605 108.481 451.443 108.306C451.281 108.132 451.195 107.9 451.204 107.662C451.212 107.424 451.315 107.199 451.489 107.036C451.663 106.874 451.894 106.788 452.132 106.797C452.369 106.805 452.594 106.908 452.756 107.083C452.917 107.257 453.003 107.489 452.995 107.727Z" fill="#262B38"/>
<path d="M449.358 126.673C449.352 126.85 449.293 127.022 449.189 127.166C449.085 127.31 448.941 127.419 448.775 127.481C448.61 127.543 448.429 127.554 448.257 127.513C448.084 127.472 447.928 127.381 447.808 127.251C447.687 127.121 447.608 126.958 447.58 126.783C447.551 126.607 447.576 126.428 447.649 126.266C447.723 126.105 447.843 125.969 447.993 125.876C448.144 125.782 448.319 125.736 448.496 125.742C448.613 125.747 448.729 125.774 448.836 125.823C448.943 125.872 449.039 125.942 449.119 126.028C449.2 126.115 449.262 126.216 449.303 126.327C449.344 126.437 449.363 126.555 449.358 126.673Z" fill="#262B38"/>
<path d="M445.722 145.652C445.718 145.77 445.69 145.885 445.641 145.993C445.592 146.1 445.523 146.197 445.437 146.277C445.35 146.357 445.249 146.42 445.139 146.461C445.029 146.502 444.911 146.521 444.794 146.517C444.677 146.514 444.561 146.488 444.454 146.44C444.347 146.392 444.251 146.323 444.171 146.238C444.09 146.152 444.028 146.051 443.987 145.941C443.946 145.831 443.927 145.714 443.931 145.597C443.934 145.478 443.96 145.361 444.009 145.252C444.057 145.144 444.126 145.046 444.213 144.964C444.299 144.883 444.401 144.819 444.512 144.778C444.623 144.736 444.741 144.717 444.859 144.721C445.096 144.732 445.319 144.836 445.48 145.01C445.641 145.184 445.728 145.414 445.722 145.652Z" fill="#262B38"/>
<path d="M438.558 165.364C438.534 165.583 438.43 165.786 438.266 165.934C438.101 166.081 437.889 166.163 437.668 166.163C437.448 166.163 437.235 166.081 437.071 165.934C436.907 165.786 436.803 165.583 436.778 165.364C436.765 165.238 436.777 165.111 436.816 164.991C436.854 164.871 436.917 164.76 437.001 164.666C437.085 164.572 437.188 164.497 437.303 164.445C437.418 164.394 437.542 164.367 437.668 164.367C437.794 164.367 437.919 164.394 438.034 164.445C438.149 164.497 438.252 164.572 438.336 164.666C438.42 164.76 438.483 164.871 438.521 164.991C438.56 165.111 438.572 165.238 438.558 165.364Z" fill="#262B38"/>
<path d="M438.438 183.51C438.435 183.629 438.409 183.745 438.361 183.853C438.312 183.961 438.243 184.058 438.156 184.139C438.07 184.22 437.968 184.282 437.857 184.323C437.746 184.363 437.628 184.381 437.51 184.375C437.333 184.368 437.162 184.309 437.019 184.205C436.875 184.101 436.766 183.957 436.704 183.791C436.642 183.624 436.631 183.443 436.672 183.27C436.713 183.098 436.804 182.941 436.934 182.82C437.063 182.699 437.226 182.62 437.401 182.591C437.576 182.563 437.755 182.588 437.916 182.661C438.077 182.735 438.212 182.855 438.305 183.006C438.398 183.157 438.445 183.333 438.438 183.51Z" fill="#262B38"/>
<path d="M434.802 202.456C434.797 202.634 434.74 202.806 434.638 202.952C434.535 203.097 434.392 203.209 434.226 203.272C434.06 203.336 433.879 203.348 433.706 203.308C433.533 203.269 433.376 203.178 433.254 203.048C433.133 202.919 433.052 202.756 433.023 202.58C432.994 202.404 433.018 202.224 433.091 202.062C433.165 201.9 433.284 201.763 433.435 201.67C433.586 201.576 433.762 201.53 433.939 201.536C434.175 201.545 434.397 201.646 434.559 201.818C434.72 201.99 434.808 202.219 434.802 202.456Z" fill="#262B38"/>
<path d="M431.166 221.401C431.157 221.641 431.055 221.867 430.881 222.031C430.707 222.195 430.476 222.283 430.238 222.277C430.12 222.273 430.004 222.246 429.897 222.197C429.79 222.148 429.694 222.078 429.614 221.991C429.534 221.905 429.471 221.803 429.43 221.693C429.389 221.582 429.371 221.465 429.375 221.347C429.378 221.229 429.405 221.113 429.453 221.005C429.502 220.898 429.571 220.801 429.656 220.72C429.742 220.639 429.843 220.576 429.953 220.534C430.063 220.492 430.18 220.473 430.298 220.476C430.415 220.48 430.531 220.507 430.638 220.555C430.745 220.603 430.842 220.673 430.923 220.759C431.003 220.844 431.066 220.945 431.108 221.056C431.15 221.166 431.169 221.284 431.166 221.401Z" fill="#262B38"/>
<path d="M427.518 240.358C427.511 240.536 427.453 240.707 427.349 240.851C427.245 240.995 427.101 241.105 426.935 241.166C426.769 241.228 426.589 241.239 426.416 241.198C426.244 241.157 426.088 241.066 425.967 240.936C425.847 240.806 425.767 240.643 425.739 240.468C425.711 240.292 425.735 240.113 425.809 239.951C425.883 239.79 426.002 239.654 426.153 239.561C426.304 239.467 426.478 239.421 426.655 239.427C426.773 239.43 426.89 239.457 426.997 239.505C427.105 239.554 427.202 239.624 427.283 239.71C427.363 239.797 427.425 239.899 427.466 240.01C427.506 240.122 427.524 240.24 427.518 240.358Z" fill="#262B38"/>
<path d="M437.663 165.857C437.54 165.857 437.421 165.814 437.325 165.736C437.23 165.659 437.164 165.55 437.139 165.43C437.123 165.359 437.121 165.286 437.133 165.215C437.145 165.144 437.171 165.075 437.21 165.014C437.248 164.953 437.299 164.9 437.358 164.859C437.417 164.817 437.483 164.788 437.554 164.773L440.262 164.192C440.333 164.176 440.406 164.175 440.478 164.188C440.55 164.2 440.618 164.228 440.679 164.267C440.74 164.307 440.793 164.359 440.834 164.419C440.874 164.48 440.903 164.548 440.917 164.619C440.931 164.69 440.932 164.762 440.918 164.833C440.905 164.904 440.877 164.971 440.838 165.031C440.798 165.091 440.747 165.142 440.688 165.183C440.628 165.223 440.562 165.251 440.491 165.265L437.783 165.846L437.663 165.857Z" fill="#262B38"/>
<path d="M446.715 155.771C445.427 159.121 444.333 162.544 443.439 166.021C442.62 169.887 442.577 178.538 442.577 178.538" fill="#262B38"/>
<path d="M442.577 179.086C442.432 179.08 442.295 179.019 442.193 178.916C442.092 178.812 442.034 178.673 442.031 178.528C442.031 178.177 442.097 169.767 442.916 165.912C443.804 162.404 444.898 158.952 446.192 155.574C446.213 155.502 446.25 155.435 446.299 155.378C446.347 155.32 446.407 155.274 446.475 155.241C446.542 155.208 446.616 155.189 446.691 155.186C446.766 155.183 446.841 155.195 446.911 155.222C446.981 155.249 447.045 155.291 447.098 155.344C447.152 155.397 447.193 155.46 447.221 155.53C447.249 155.6 447.262 155.675 447.26 155.751C447.257 155.826 447.239 155.9 447.207 155.968C445.92 159.293 444.826 162.69 443.931 166.142C443.134 169.909 443.079 178.451 443.068 178.538C443.069 178.675 443.019 178.806 442.928 178.908C442.837 179.009 442.712 179.072 442.577 179.086Z" fill="#262B38"/>
<path d="M242.916 273.606C244.433 249.075 241.649 204.471 287.633 210.385C336.915 216.703 322.817 274.504 322.817 274.504L242.916 273.606Z" fill="#262B38"/>
<path d="M274.649 258.866C285.734 258.866 294.72 249.854 294.72 238.737C294.72 227.621 285.734 218.609 274.649 218.609C263.564 218.609 254.578 227.621 254.578 238.737C254.578 249.854 263.564 258.866 274.649 258.866Z" fill="white"/>
<path d="M277.291 218.642C267.78 217.021 257.635 224.041 256.62 231.159L294.305 234.642C292.973 226.527 284.826 219.934 277.291 218.642Z" fill="#262B38"/>
<path d="M290.013 238.234C289.74 243.501 286.879 247.63 283.625 247.455C280.371 247.279 277.947 242.888 278.165 237.598C278.383 232.309 281.299 228.202 284.553 228.377C287.807 228.553 290.275 232.977 290.013 238.234Z" fill="#262B38"/>
<path d="M274.649 259.961C270.463 259.961 266.372 258.716 262.891 256.384C259.411 254.052 256.699 250.737 255.097 246.859C253.495 242.981 253.076 238.714 253.892 234.597C254.709 230.48 256.725 226.698 259.684 223.73C262.644 220.762 266.415 218.741 270.52 217.922C274.625 217.103 278.88 217.523 282.748 219.129C286.615 220.736 289.92 223.456 292.245 226.946C294.571 230.436 295.812 234.54 295.812 238.737C295.806 244.364 293.574 249.759 289.607 253.738C285.639 257.717 280.26 259.955 274.649 259.961ZM274.649 219.715C270.895 219.715 267.225 220.832 264.104 222.924C260.982 225.015 258.55 227.989 257.114 231.467C255.677 234.946 255.302 238.773 256.035 242.466C256.769 246.158 258.577 249.549 261.233 252.211C263.888 254.872 267.271 256.684 270.953 257.417C274.635 258.15 278.452 257.772 281.919 256.33C285.387 254.887 288.35 252.446 290.435 249.315C292.519 246.183 293.63 242.502 293.628 238.737C293.622 233.692 291.62 228.856 288.062 225.289C284.504 221.723 279.68 219.718 274.649 219.715Z" fill="#5D85EC"/>
<path opacity="0.3" d="M317.215 272.993H317.084C317.014 272.977 316.947 272.948 316.889 272.906C316.83 272.865 316.781 272.812 316.743 272.75C316.705 272.689 316.68 272.621 316.669 272.549C316.659 272.478 316.662 272.406 316.68 272.336C316.68 272.193 320.196 257.344 316.582 242.329C316.547 242.184 316.571 242.031 316.649 241.904C316.727 241.776 316.852 241.685 316.997 241.65C317.141 241.616 317.294 241.64 317.421 241.718C317.548 241.796 317.639 241.921 317.674 242.067C321.354 257.398 317.805 272.445 317.772 272.588C317.74 272.709 317.667 272.816 317.565 272.889C317.464 272.963 317.34 273 317.215 272.993Z" fill="white"/>
<path opacity="0.3" d="M314.168 234.094C314.064 234.093 313.961 234.062 313.873 234.006C313.784 233.95 313.712 233.871 313.666 233.776C312.309 230.768 310.569 227.948 308.49 225.388C308.4 225.276 308.357 225.132 308.371 224.989C308.385 224.845 308.456 224.713 308.567 224.621C308.622 224.575 308.687 224.539 308.756 224.518C308.825 224.497 308.898 224.489 308.97 224.496C309.042 224.504 309.112 224.525 309.176 224.56C309.24 224.594 309.296 224.641 309.342 224.698C311.472 227.333 313.259 230.229 314.66 233.316C314.691 233.381 314.709 233.451 314.712 233.523C314.716 233.594 314.705 233.666 314.681 233.733C314.657 233.801 314.619 233.862 314.57 233.915C314.522 233.968 314.463 234.01 314.398 234.039C314.326 234.073 314.248 234.091 314.168 234.094Z" fill="white"/>
<path d="M140.573 388.682H140.169C138.721 388.641 137.348 388.025 136.353 386.97C135.358 385.914 134.821 384.505 134.862 383.053C134.902 381.601 135.516 380.224 136.569 379.226C137.622 378.228 139.027 377.69 140.475 377.731H140.573C143.729 377.731 151.318 373.887 167.196 348.786C167.617 348.12 168.178 347.552 168.838 347.123C169.499 346.694 170.244 346.413 171.023 346.3C171.802 346.186 172.596 346.243 173.351 346.466C174.106 346.69 174.804 347.074 175.397 347.593C187.866 358.343 201.465 367.699 215.954 375.497C216.624 375.802 217.226 376.241 217.723 376.786C218.22 377.332 218.602 377.972 218.846 378.669C219.089 379.366 219.19 380.106 219.141 380.843C219.093 381.58 218.896 382.299 218.562 382.958C218.229 383.617 217.767 384.201 217.202 384.676C216.638 385.151 215.984 385.506 215.279 385.721C214.574 385.935 213.833 386.004 213.101 385.924C212.368 385.844 211.66 385.616 211.018 385.254C197.552 378.078 184.823 369.59 173.016 359.913C159.705 380.008 149.833 388.682 140.573 388.682Z" fill="#262B38"/>
<path d="M174.36 346.607H173.89C173.032 346.483 172.258 346.022 171.738 345.326C171.219 344.63 170.995 343.756 171.117 342.895C171.892 337.419 170.931 317.017 164.04 301.138C163.735 300.436 163.683 299.649 163.895 298.913C164.106 298.177 164.567 297.539 165.198 297.108C180.158 286.89 212.023 285.664 213.377 285.62C213.807 285.605 214.236 285.676 214.639 285.828C215.042 285.98 215.411 286.21 215.726 286.505C216.04 286.799 216.293 287.154 216.471 287.547C216.649 287.94 216.748 288.364 216.762 288.796C216.777 289.227 216.706 289.657 216.555 290.061C216.403 290.465 216.174 290.836 215.88 291.151C215.586 291.466 215.233 291.72 214.841 291.899C214.449 292.077 214.026 292.176 213.595 292.19C213.301 292.19 185.444 293.286 171.138 301.171C177.232 316.984 178.619 336.685 177.603 343.815C177.485 344.593 177.093 345.302 176.498 345.815C175.903 346.327 175.144 346.608 174.36 346.607Z" fill="#262B38"/>
<path d="M179.863 342.358C177.679 337.2 167.851 337.78 162.097 342.205C159.017 344.559 154.846 351.667 154.453 354.251C154.322 354.865 154.341 355.502 154.51 356.107C154.678 356.712 154.991 357.266 155.421 357.723C155.85 358.18 156.384 358.525 156.977 358.729C157.569 358.933 158.202 358.99 158.821 358.894C162.588 358.566 167.753 353.079 167.753 353.079C164.313 356.463 168.758 358.851 175.397 353.955C179.023 351.229 182.299 348.129 179.863 342.358Z" fill="#5D85EC"/>
<path d="M367.687 275.052C367.637 275.063 367.585 275.063 367.535 275.052C367.465 275.033 367.4 275 367.343 274.955C367.286 274.911 367.239 274.855 367.205 274.792C367.17 274.728 367.148 274.658 367.141 274.586C367.134 274.514 367.142 274.442 367.163 274.373C368.616 269.291 370.199 266.192 372.285 264.517C371.958 263.339 372.019 262.087 372.459 260.946C372.968 259.616 373.867 258.47 375.037 257.661C374.719 257.317 374.493 256.897 374.38 256.441C374.267 255.985 374.272 255.508 374.392 255.055C374.788 253.683 375.606 252.472 376.729 251.594C376.324 251.14 376.102 250.55 376.107 249.94C376.107 246.655 382.124 241.705 388.949 240.763C389.093 240.743 389.24 240.781 389.357 240.87C389.474 240.958 389.551 241.089 389.571 241.234C389.591 241.379 389.553 241.527 389.465 241.644C389.377 241.761 389.246 241.838 389.102 241.858C382.615 242.746 377.177 247.455 377.199 249.94C377.197 250.311 377.337 250.668 377.592 250.937C379.061 249.938 380.713 249.242 382.453 248.891C384.193 248.539 385.986 248.539 387.726 248.889C391.078 249.535 392.443 250.247 392.29 251.266C391.984 253.182 384.854 253.587 380.071 253.018C379.214 252.94 378.38 252.698 377.614 252.306C376.584 253.041 375.818 254.089 375.43 255.296C375.336 255.615 375.337 255.954 375.432 256.273C375.527 256.592 375.712 256.876 375.965 257.092C377.996 255.997 380.846 255.602 384.613 256.435C389.56 257.53 389.746 258.132 389.866 258.493C389.904 258.621 389.907 258.757 389.875 258.886C389.842 259.015 389.775 259.133 389.68 259.227C388.643 260.322 381.054 259.808 377.242 258.866C376.782 258.761 376.338 258.595 375.921 258.373C374.793 259.06 373.925 260.104 373.453 261.341C373.138 262.141 373.051 263.013 373.202 263.86C373.396 263.743 373.597 263.637 373.803 263.542C376.063 262.447 378.793 262.644 382.167 264.09C384.351 265.042 385.443 265.896 385.553 266.762C385.557 266.984 385.502 267.203 385.392 267.395C385.283 267.588 385.123 267.748 384.93 267.857C383.259 268.952 377.428 268.799 374.392 267.178C373.694 266.797 373.113 266.233 372.711 265.546C370.931 267.189 369.489 270.113 368.179 274.701C368.139 274.801 368.072 274.887 367.985 274.949C367.897 275.011 367.794 275.047 367.687 275.052ZM373.606 264.834C373.91 265.401 374.373 265.865 374.938 266.17C377.406 267.484 382.255 267.78 384.067 267.046C384.439 266.893 384.493 266.773 384.493 266.773C384.493 266.773 384.439 266.159 381.763 265.009C378.706 263.695 376.303 263.509 374.305 264.44C374.064 264.556 373.83 264.688 373.606 264.834ZM377.253 257.639L377.526 257.716C381.082 258.538 384.742 258.815 388.381 258.537C387.09 258.057 385.76 257.691 384.406 257.442C382.054 256.803 379.567 256.872 377.253 257.639ZM378.629 251.485C379.133 251.666 379.658 251.784 380.191 251.835C385.651 252.481 390.445 251.726 391.111 251.036C390.925 250.871 390.194 250.4 387.485 249.886C384.438 249.276 381.273 249.848 378.629 251.485Z" fill="#262B38"/>
<path d="M225.531 386.853C226.252 386.623 226.011 385.922 225.203 385.922H210.418C182.266 382.933 162.599 386.941 174.993 387.883C187.387 388.824 174.12 388.627 165.067 392.066C156.014 395.505 232.389 396.37 239.323 392.066C245.7 388.102 215.55 390.062 225.531 386.853Z" fill="#262B38"/>
<path d="M331.389 391.223L202.752 386.941L197.412 261.855L349.32 265.261L331.389 391.223Z" fill="#5D85EC"/>
<path d="M242.915 388.824C242.778 388.825 242.645 388.773 242.544 388.68C242.443 388.586 242.38 388.458 242.369 388.321L232.061 262.688C232.052 262.543 232.099 262.4 232.193 262.29C232.287 262.18 232.419 262.11 232.563 262.096C232.707 262.09 232.848 262.138 232.957 262.232C233.066 262.325 233.136 262.457 233.153 262.6L243.516 388.233C243.522 388.305 243.514 388.377 243.492 388.446C243.47 388.515 243.434 388.578 243.388 388.633C243.341 388.688 243.284 388.734 243.22 388.766C243.155 388.799 243.085 388.819 243.014 388.824H242.915Z" fill="#262B38"/>
<path d="M331.389 391.223L365.962 385.944L376.849 269.631L349.32 265.261L331.389 391.223Z" fill="#5D85EC"/>
<path opacity="0.2" d="M331.389 391.223L365.962 385.944L376.849 269.631L349.32 265.261L331.389 391.223Z" fill="black"/>
<path d="M213.737 362.837L210.57 288.511C210.492 286.675 210.79 284.842 211.447 283.126C212.103 281.41 213.103 279.847 214.386 278.535C215.668 277.222 217.206 276.187 218.903 275.494C220.6 274.8 222.421 274.464 224.253 274.504L320.415 276.694C322.308 276.737 324.171 277.182 325.88 278C327.59 278.818 329.107 279.99 330.332 281.438C331.557 282.887 332.462 284.58 332.986 286.405C333.511 288.23 333.644 290.146 333.377 292.026L322.719 366.867C322.258 370.145 320.606 373.137 318.081 375.269C315.556 377.401 312.335 378.523 309.036 378.421L226.71 375.683C223.33 375.578 220.115 374.196 217.709 371.814C215.303 369.431 213.884 366.225 213.737 362.837Z" fill="#262B38"/>
<path d="M224.133 297.316L239.006 297.787L238.886 301.63L229.571 301.335L229.484 304.204L238.121 304.478L238.001 308.157L229.364 307.873L229.254 311.432L238.831 311.738L238.7 315.812L223.554 315.33L224.133 297.316Z" fill="white"/>
<path d="M241.769 315.911L242.337 297.896L251.597 298.192C252.925 298.185 254.246 298.377 255.517 298.761C256.418 299.064 257.189 299.667 257.701 300.47C258.081 301.054 258.336 301.711 258.451 302.399C258.567 303.087 258.54 303.792 258.372 304.469C258.204 305.146 257.898 305.781 257.475 306.335C257.051 306.888 256.519 307.348 255.91 307.687C255.289 308.007 254.623 308.229 253.934 308.344C254.441 308.508 254.923 308.744 255.364 309.045C255.683 309.341 255.968 309.672 256.216 310.03C256.497 310.371 256.746 310.738 256.959 311.125L259.481 316.437L253.213 316.229L250.417 310.632C250.196 310.098 249.869 309.614 249.456 309.209C249.065 308.925 248.597 308.764 248.113 308.749H247.622L247.393 316.053L241.769 315.911ZM247.687 305.376L250.024 305.453C250.52 305.422 251.013 305.353 251.499 305.244C251.864 305.189 252.195 304.997 252.427 304.708C252.663 304.416 252.797 304.054 252.809 303.678C252.83 303.428 252.794 303.176 252.706 302.941C252.617 302.706 252.477 302.494 252.296 302.32C251.686 301.926 250.967 301.737 250.243 301.784L247.797 301.707L247.687 305.376Z" fill="white"/>
<path d="M261.294 316.491L261.862 298.477L271.111 298.772C272.439 298.764 273.76 298.956 275.031 299.342C275.934 299.641 276.706 300.245 277.215 301.05C277.77 301.928 278.03 302.96 277.958 303.996C277.961 304.87 277.728 305.728 277.284 306.48C276.84 307.232 276.201 307.85 275.435 308.267C274.814 308.586 274.147 308.807 273.459 308.924C273.963 309.087 274.442 309.323 274.878 309.625C275.205 309.913 275.495 310.24 275.741 310.6C276.02 310.942 276.269 311.308 276.484 311.695L279.006 316.995L272.738 316.798L269.943 311.202C269.719 310.668 269.393 310.184 268.982 309.778C268.591 309.483 268.117 309.321 267.628 309.318H267.147L266.907 316.634L261.294 316.491ZM267.202 305.956L269.549 306.022C270.046 306.003 270.54 305.937 271.024 305.825C271.387 305.771 271.715 305.578 271.941 305.288C272.186 305.001 272.321 304.636 272.323 304.259C272.347 304.009 272.314 303.757 272.227 303.522C272.14 303.287 272.001 303.075 271.821 302.901C271.212 302.496 270.485 302.307 269.757 302.364L267.322 302.288L267.202 305.956Z" fill="white"/>
<path d="M279.901 308.124C279.817 306.867 280.011 305.607 280.471 304.434C280.93 303.262 281.642 302.205 282.557 301.341C283.471 300.478 284.565 299.828 285.76 299.438C286.955 299.049 288.221 298.93 289.467 299.09C290.725 299.048 291.978 299.26 293.152 299.713C294.327 300.167 295.398 300.852 296.303 301.729C297.111 302.662 297.721 303.75 298.097 304.926C298.472 306.103 298.605 307.344 298.487 308.573C298.496 310.363 298.077 312.128 297.264 313.721C296.528 315.024 295.427 316.082 294.097 316.765C292.53 317.516 290.796 317.848 289.063 317.729C287.335 317.743 285.626 317.369 284.062 316.634C282.73 315.909 281.643 314.803 280.939 313.458C280.113 311.809 279.754 309.964 279.901 308.124ZM285.449 308.322C285.285 309.702 285.597 311.097 286.333 312.275C286.678 312.66 287.096 312.972 287.563 313.192C288.03 313.412 288.536 313.536 289.052 313.555C289.568 313.574 290.082 313.489 290.564 313.305C291.046 313.121 291.487 312.842 291.859 312.483C292.668 311.254 293.052 309.791 292.951 308.322C293.097 307.002 292.776 305.672 292.044 304.565C291.713 304.183 291.304 303.876 290.844 303.666C290.385 303.457 289.885 303.349 289.38 303.35C288.87 303.313 288.359 303.392 287.884 303.582C287.41 303.772 286.984 304.067 286.639 304.445C285.812 305.563 285.392 306.931 285.449 308.322Z" fill="white"/>
<path d="M301.294 317.816L301.862 299.791L311.111 300.086C312.438 300.084 313.759 300.276 315.031 300.656C315.93 300.963 316.699 301.565 317.215 302.364C317.766 303.243 318.026 304.274 317.958 305.31C317.963 306.186 317.731 307.047 317.287 307.801C316.842 308.555 316.202 309.174 315.435 309.592C314.811 309.902 314.145 310.119 313.459 310.238C313.964 310.405 314.442 310.645 314.878 310.95C315.205 311.238 315.494 311.565 315.741 311.925C316.022 312.265 316.271 312.632 316.483 313.02L319.006 318.331L312.738 318.134L309.942 312.527C309.72 311.996 309.393 311.515 308.981 311.114C308.59 310.82 308.116 310.656 307.627 310.643H307.147L306.907 317.959L301.294 317.816ZM307.201 307.27L309.549 307.347C310.046 307.328 310.539 307.262 311.023 307.15C311.385 307.091 311.712 306.9 311.941 306.613C312.198 306.308 312.335 305.918 312.323 305.518C312.347 305.27 312.314 305.02 312.227 304.787C312.14 304.553 312.001 304.343 311.821 304.171C311.212 303.766 310.485 303.578 309.757 303.634L307.322 303.558L307.201 307.27Z" fill="white"/>
<path d="M310.128 348.425C309.923 348.429 309.72 348.389 309.531 348.308C309.343 348.227 309.174 348.106 309.036 347.954L299.688 337.693L289.598 346.936C289.319 347.193 288.949 347.328 288.57 347.311C288.191 347.295 287.835 347.128 287.578 346.848L278.231 336.587L268.141 345.83C267.861 346.087 267.491 346.222 267.112 346.205C266.734 346.189 266.377 346.022 266.12 345.742L256.762 335.481L246.683 344.724C246.536 344.857 246.363 344.959 246.175 345.023C245.987 345.087 245.789 345.112 245.591 345.096C245.211 345.073 244.855 344.905 244.597 344.625L235.25 334.375L225.17 343.607C224.889 343.864 224.517 343.999 224.137 343.983C223.756 343.967 223.398 343.8 223.139 343.519C223.012 343.38 222.913 343.217 222.849 343.04C222.785 342.862 222.756 342.674 222.766 342.485C222.775 342.297 222.821 342.112 222.902 341.942C222.983 341.771 223.097 341.619 223.238 341.493L234.376 331.275C234.657 331.018 235.029 330.883 235.41 330.899C235.79 330.915 236.149 331.082 236.407 331.363L245.755 341.624L255.834 332.382C256.12 332.13 256.491 331.996 256.871 332.009C257.251 332.03 257.608 332.199 257.865 332.48L267.212 342.741L277.302 333.499C277.44 333.37 277.602 333.27 277.779 333.205C277.955 333.14 278.143 333.11 278.331 333.119C278.519 333.127 278.703 333.172 278.874 333.252C279.044 333.333 279.197 333.446 279.323 333.586L288.67 343.848L298.76 334.605C299.04 334.348 299.41 334.213 299.788 334.229C300.167 334.246 300.524 334.412 300.78 334.692L311.22 346.06C311.407 346.269 311.528 346.528 311.571 346.805C311.613 347.083 311.574 347.366 311.458 347.622C311.342 347.877 311.155 348.093 310.919 348.244C310.683 348.394 310.408 348.472 310.128 348.469V348.425Z" fill="white"/>
<path d="M137.319 393.884L130.483 390.609L124.39 360.855L127.698 357.208L137.319 393.884Z" fill="#5D85EC"/>
<path d="M137.319 393.884L146.393 388.562L138.618 364.053L127.698 357.208L137.319 393.884Z" fill="#5D85EC"/>
<path opacity="0.2" d="M137.319 393.884L146.393 388.562L138.618 364.053L127.698 357.208L137.319 393.884Z" fill="black"/>
<path d="M286.104 399.294H285.35C283.902 399.255 282.529 398.64 281.533 397.585C280.537 396.531 279.999 395.123 280.038 393.67C280.077 392.218 280.69 390.841 281.741 389.842C282.793 388.843 284.197 388.303 285.645 388.342C294.054 388.616 311.853 383.436 322.031 373.536C322.645 372.932 323.394 372.482 324.215 372.222C341.457 367.031 347.867 377.512 348.13 377.961L338.738 383.535C338.771 383.605 338.812 383.671 338.858 383.732C338.76 383.59 336.314 380.447 328.539 382.374C315.774 394.048 296.183 399.294 286.104 399.294Z" fill="#262B38"/>
<path d="M285.438 406.565L265.553 405.317L263.991 368.543L290.712 369.539L285.438 406.565Z" fill="#5D85EC"/>
<path d="M285.438 406.565L290.09 401.922L292.973 379.001L290.712 369.539L285.438 406.565Z" fill="#5D85EC"/>
<path opacity="0.2" d="M285.438 406.565L290.09 401.922L292.973 379.001L290.712 369.539L285.438 406.565Z" fill="black"/>
<path d="M400.666 392.646C399.952 392.646 399.258 392.411 398.689 391.978C387.333 383.327 371.99 367.962 366.104 353.145C366.016 352.931 365.953 352.706 365.918 352.477C363.047 335.349 360.306 299.309 360.185 297.787C360.153 297.355 360.206 296.922 360.341 296.511C360.476 296.1 360.69 295.719 360.971 295.391C361.54 294.729 362.347 294.32 363.216 294.255C364.085 294.189 364.944 294.473 365.604 295.043C366.265 295.613 366.672 296.422 366.737 297.294C366.737 297.655 369.544 334.046 372.339 351.032C378.214 365.443 394.179 380.239 402.675 386.744C403.222 387.16 403.625 387.738 403.827 388.396C404.028 389.054 404.019 389.76 403.799 390.412C403.579 391.064 403.161 391.631 402.602 392.032C402.044 392.433 401.374 392.648 400.688 392.646H400.666Z" fill="#262B38"/>
<path d="M415.812 394.3C413.278 394.3 410.406 393.15 407.272 390.883C406.568 390.372 406.096 389.601 405.959 388.741C405.822 387.88 406.031 387 406.541 386.295C407.05 385.589 407.819 385.115 408.677 384.977C409.535 384.84 410.412 385.05 411.116 385.561C413.824 387.521 415.298 387.751 415.812 387.751C416.681 387.751 417.514 388.097 418.128 388.713C418.743 389.329 419.088 390.165 419.088 391.036C419.088 391.908 418.743 392.743 418.128 393.36C417.514 393.976 416.681 394.322 415.812 394.322V394.3Z" fill="#262B38"/>
<path d="M408.19 390.785C411.695 380.348 426.066 382.407 431.023 383.962C435.258 385.195 439.32 386.961 443.112 389.219C445.787 390.971 445.831 393.917 442.26 395.592C437.892 397.651 426.797 395.822 426.797 395.822C432.519 398.33 426.797 402.393 416.74 398.407C413.475 397.114 406.956 394.618 408.19 390.785Z" fill="#5D85EC"/>
<path d="M373.311 302.255C372.012 311.125 364.684 317.663 358.722 316.787C352.76 315.911 352.519 308.026 353.819 299.112C355.118 290.197 357.477 283.78 363.439 284.656C369.402 285.532 374.611 293.417 373.311 302.255Z" fill="#262B38"/>
<path d="M229.189 266.882C229.683 266.882 230.084 266.48 230.084 265.984C230.084 265.488 229.683 265.086 229.189 265.086C228.694 265.086 228.293 265.488 228.293 265.984C228.293 266.48 228.694 266.882 229.189 266.882Z" fill="#262B38"/>
<path d="M238.285 272.445C238.285 272.623 238.233 272.796 238.134 272.944C238.036 273.092 237.896 273.207 237.732 273.275C237.569 273.343 237.389 273.36 237.215 273.326C237.041 273.291 236.882 273.206 236.757 273.08C236.631 272.955 236.546 272.795 236.512 272.62C236.477 272.446 236.495 272.266 236.563 272.102C236.63 271.938 236.745 271.797 236.892 271.699C237.04 271.6 237.213 271.547 237.39 271.547C237.627 271.547 237.855 271.642 238.023 271.81C238.191 271.979 238.285 272.207 238.285 272.445Z" fill="#262B38"/>
<path d="M239.29 378.563C239.29 378.74 239.237 378.914 239.139 379.062C239.041 379.209 238.901 379.324 238.737 379.392C238.574 379.46 238.393 379.478 238.22 379.443C238.046 379.409 237.887 379.323 237.761 379.198C237.636 379.072 237.551 378.912 237.516 378.738C237.482 378.564 237.499 378.383 237.567 378.219C237.635 378.055 237.75 377.915 237.897 377.816C238.044 377.718 238.217 377.665 238.394 377.665C238.632 377.665 238.86 377.76 239.028 377.928C239.196 378.096 239.29 378.325 239.29 378.563Z" fill="#262B38"/>
<path d="M247.491 385.035C247.491 385.213 247.438 385.386 247.34 385.534C247.242 385.681 247.102 385.797 246.938 385.865C246.774 385.932 246.594 385.95 246.421 385.916C246.247 385.881 246.087 385.795 245.962 385.67C245.837 385.544 245.752 385.384 245.717 385.21C245.683 385.036 245.7 384.855 245.768 384.691C245.836 384.527 245.951 384.387 246.098 384.288C246.245 384.19 246.418 384.137 246.595 384.137C246.833 384.137 247.061 384.232 247.229 384.4C247.396 384.569 247.491 384.797 247.491 385.035Z" fill="#262B38"/>
<path d="M90.101 395.8C88.5289 395.727 86.9934 395.3 85.608 394.551C84.2225 393.802 83.0225 392.751 82.0967 391.475C82.0513 391.416 82.0183 391.348 81.9997 391.277C81.9811 391.205 81.9773 391.13 81.9885 391.056C81.9997 390.983 82.0257 390.912 82.0649 390.849C82.1041 390.786 82.1557 390.732 82.2165 390.689C82.2774 390.647 82.3462 390.617 82.4188 390.603C82.4914 390.588 82.5662 390.588 82.6388 390.603C82.7113 390.618 82.7801 390.648 82.8408 390.69C82.9015 390.733 82.953 390.787 82.9921 390.85C85.0341 393.807 89.5441 395.373 91.5097 394.442C91.7066 394.359 91.882 394.231 92.0229 394.07C91.0297 393.632 90.1595 392.955 89.4891 392.099C88.8187 391.243 88.3688 390.235 88.1791 389.164C87.9279 387.773 87.7314 385.878 88.867 385.638C90.4395 385.287 92.4925 389.087 93.235 391.967C93.3695 392.444 93.4176 392.941 93.377 393.435C94.0069 393.623 94.6693 393.675 95.3208 393.588C95.6143 393.565 95.8999 393.482 96.1594 393.342C96.4189 393.203 96.6465 393.01 96.8277 392.778C96.1091 392.234 95.5129 391.544 95.0782 390.753C94.6436 389.963 94.3801 389.089 94.3052 388.189C93.8903 385.189 94.2069 384.674 94.5345 384.411C94.6407 384.329 94.7674 384.279 94.9004 384.265C95.0335 384.252 95.1677 384.276 95.288 384.334C96.4565 384.827 97.8651 389.076 98.1381 391.485C98.1708 391.736 98.1708 391.99 98.1381 392.241C98.6089 392.423 99.108 392.519 99.6123 392.526C100.538 392.562 101.454 392.322 102.244 391.836C102.091 391.737 101.949 391.628 101.807 391.518C100.715 390.544 100.213 388.989 100.409 386.776C100.562 385.057 100.945 384.115 101.633 383.82C101.854 383.73 102.098 383.708 102.332 383.754C102.567 383.801 102.783 383.915 102.954 384.082C103.691 384.899 104.242 385.866 104.568 386.918C104.894 387.969 104.988 389.08 104.843 390.171C104.748 390.626 104.558 391.055 104.286 391.431C106.295 391.781 109.113 391.212 111.548 390.609C111.62 390.592 111.694 390.589 111.767 390.601C111.84 390.612 111.909 390.638 111.972 390.677C112.035 390.715 112.09 390.766 112.133 390.826C112.177 390.886 112.208 390.954 112.225 391.026C112.242 391.097 112.245 391.172 112.234 391.245C112.222 391.318 112.196 391.388 112.158 391.451C112.119 391.514 112.069 391.569 112.009 391.613C111.949 391.656 111.882 391.687 111.81 391.704C108.851 392.438 105.662 393.041 103.412 392.383C102.314 393.221 100.97 393.668 99.5905 393.654C98.9784 393.646 98.3724 393.531 97.7996 393.314C97.5456 393.708 97.2047 394.039 96.8034 394.28C96.402 394.521 95.9508 394.666 95.4846 394.705C94.6637 394.811 93.8298 394.74 93.0385 394.497C92.7837 394.927 92.4022 395.268 91.9465 395.472C91.3608 395.709 90.7323 395.821 90.101 395.8ZM89.1619 386.733C89.0108 387.477 89.0408 388.247 89.2493 388.978C89.4033 389.853 89.7656 390.679 90.3055 391.384C90.8454 392.09 91.5469 392.654 92.3505 393.03C92.3353 392.77 92.2913 392.513 92.2195 392.263C91.3677 389.131 89.7297 386.974 89.1619 386.733ZM95.2443 385.78C95.2514 386.535 95.3135 387.289 95.43 388.036C95.5504 389.371 96.1384 390.62 97.0898 391.562C96.8211 389.54 96.1962 387.582 95.2443 385.78ZM102.113 384.827C102.113 384.827 101.698 385.035 101.545 386.864C101.392 388.693 101.709 389.952 102.561 390.686C102.762 390.85 102.982 390.989 103.216 391.102C103.503 390.794 103.706 390.417 103.806 390.007C104 388.283 103.536 386.55 102.506 385.156C102.277 384.871 102.146 384.827 102.113 384.827Z" fill="#262B38"/>
<path d="M249.926 404.079L252.885 398.932L249.926 393.785H246.759L248.55 398.932L246.759 404.079H249.926Z" fill="#262B38"/>
<path d="M246.967 401.615C246.602 401.639 246.236 401.587 245.892 401.463C245.547 401.339 245.232 401.146 244.965 400.895C244.699 400.644 244.486 400.341 244.341 400.004C244.195 399.667 244.12 399.305 244.12 398.938C244.12 398.571 244.195 398.208 244.341 397.872C244.486 397.535 244.699 397.232 244.965 396.981C245.232 396.73 245.547 396.537 245.892 396.413C246.236 396.289 246.602 396.237 246.967 396.26L241.943 395.253L240.6 399.327L242.85 402.765L246.967 401.615Z" fill="#262B38"/>
<path d="M247.404 393.785H241.474L238.515 398.932L241.474 404.079H247.404L250.363 398.932L247.404 393.785ZM244.444 401.615C243.915 401.618 243.396 401.462 242.955 401.169C242.513 400.875 242.169 400.457 241.965 399.967C241.761 399.477 241.706 398.937 241.808 398.416C241.91 397.895 242.164 397.415 242.538 397.039C242.911 396.663 243.388 396.406 243.907 396.302C244.427 396.197 244.965 396.25 245.455 396.453C245.944 396.655 246.363 396.999 246.657 397.441C246.951 397.882 247.109 398.401 247.109 398.932C247.109 399.642 246.828 400.323 246.329 400.826C245.83 401.329 245.152 401.613 244.444 401.615Z" fill="#5D85EC"/>
<path d="M456.336 393.435L454.141 389.613L456.336 385.791H458.684L457.362 389.613L458.684 393.435H456.336Z" fill="#5D85EC"/>
<path d="M458.531 391.606C458.803 391.626 459.077 391.59 459.335 391.499C459.593 391.409 459.83 391.265 460.03 391.079C460.231 390.892 460.39 390.666 460.5 390.415C460.609 390.164 460.665 389.893 460.665 389.618C460.665 389.344 460.609 389.073 460.5 388.822C460.39 388.57 460.231 388.344 460.03 388.158C459.83 387.971 459.593 387.828 459.335 387.737C459.077 387.647 458.803 387.61 458.531 387.631L462.265 386.886L463.259 389.909L461.599 392.46L458.531 391.606Z" fill="#5D85EC"/>
<path d="M458.214 385.791H462.582L464.766 389.613L462.582 393.435H458.214L456.03 389.613L458.214 385.791ZM460.398 391.606C460.792 391.608 461.177 391.493 461.505 391.275C461.833 391.058 462.09 390.747 462.242 390.383C462.394 390.019 462.435 389.618 462.36 389.231C462.284 388.843 462.096 388.487 461.818 388.207C461.541 387.927 461.187 387.737 460.801 387.659C460.415 387.581 460.015 387.62 459.651 387.77C459.287 387.921 458.976 388.176 458.757 388.504C458.538 388.832 458.422 389.218 458.422 389.613C458.42 389.875 458.471 390.135 458.57 390.377C458.669 390.62 458.816 390.84 459 391.025C459.185 391.211 459.405 391.357 459.647 391.457C459.888 391.557 460.148 391.607 460.409 391.606H460.398Z" fill="#262B38"/>
<path d="M374.556 398.515H379.492C380.11 398.512 380.701 398.264 381.137 397.825C381.573 397.386 381.818 396.792 381.818 396.172C381.818 395.553 381.573 394.958 381.137 394.519C380.701 394.08 380.11 393.832 379.492 393.829H374.556C373.936 393.829 373.342 394.076 372.904 394.515C372.465 394.955 372.219 395.551 372.219 396.172C372.219 396.794 372.465 397.39 372.904 397.829C373.342 398.269 373.936 398.515 374.556 398.515Z" fill="#262B38"/>
<path d="M366.617 394.092C367.075 393.256 367.767 392.574 368.607 392.128C369.448 391.682 370.4 391.493 371.346 391.583C372.293 391.673 373.192 392.039 373.934 392.636C374.675 393.233 375.226 394.034 375.519 394.941C375.811 395.848 375.833 396.822 375.581 397.741C375.329 398.66 374.814 399.485 374.099 400.114C373.385 400.744 372.503 401.15 371.562 401.282C370.62 401.414 369.661 401.268 368.801 400.86C367.62 400.249 366.728 399.195 366.319 397.927C365.91 396.659 366.017 395.281 366.617 394.092Z" fill="#5D85EC"/>
<path d="M367.949 400.858L369.302 401.498L374.005 391.493L372.652 390.854L367.949 400.858Z" fill="#262B38"/>
</svg>
